<svg viewBox="0 0 297.6994 70.9229" width="5000px" height="1191.1830674973914px" xmlns="http://www.w3.org/2000/svg" xmlns:xlink="http://www.w3.org/1999/xlink" preserveAspectRatio="none"><defs></defs><style>.a6izo4zJpcolor {fill:#285A84;fill-opacity:1;}.aIptOCySncolors-0 {fill:#F7777A;fill-opacity:1;}.companyName {fill:#285A84;fill-opacity:1;}.shapeStroke-str {stroke:#285A84;stroke-opacity:1;}</style><g opacity="1" transform="rotate(0 0 0.599899999999991)">
<svg width="76.2417" height="64.7087" x="0" y="0.599899999999991" version="1.1" preserveAspectRatio="none" viewBox="0.16599999368190765 4.0320000648498535 50.23500061035156 42.6359977722168">
  <g transform="matrix(1 0 0 1 0 0)" class="aIptOCySncolors-0"><g><rect x="0.166" y="31.438" width="3.515" height="3.518"></rect><rect x="5.93" y="31.438" width="3.515" height="3.518"></rect><rect x="11.834" y="31.438" width="3.516" height="3.518"></rect><rect x="17.599" y="31.438" width="3.514" height="3.518"></rect><rect x="23.502" y="31.438" width="3.515" height="3.518"></rect><rect x="29.267" y="31.438" width="3.515" height="3.518"></rect><rect x="35.17" y="31.438" width="3.517" height="3.518"></rect><rect x="40.937" y="31.438" width="3.515" height="3.518"></rect><rect x="0.166" y="37.269" width="3.515" height="3.514"></rect><rect x="5.93" y="37.269" width="3.515" height="3.514"></rect><rect x="11.834" y="37.269" width="3.516" height="3.514"></rect><rect x="17.599" y="37.269" width="3.514" height="3.514"></rect><rect x="23.502" y="37.269" width="3.515" height="3.514"></rect><rect x="29.267" y="37.269" width="3.515" height="3.514"></rect><rect x="35.17" y="37.269" width="3.517" height="3.514"></rect><rect x="40.937" y="37.269" width="3.515" height="3.514"></rect><rect x="0.166" y="43.154" width="3.515" height="3.514"></rect><rect x="5.93" y="43.154" width="3.515" height="3.514"></rect><rect x="11.834" y="43.154" width="26.853" height="3.514"></rect><rect x="40.937" y="43.154" width="3.515" height="3.514"></rect><rect x="46.887" y="31.438" width="3.514" height="3.518"></rect><rect x="46.887" y="37.269" width="3.514" height="3.514"></rect><rect x="46.887" y="43.154" width="3.514" height="3.514"></rect><rect x="6" y="4.032" width="38.521" height="24.06"></rect></g></g>
</svg>
</g><g opacity="1" transform="rotate(0 112.60930000000002 57.53429999999997)">
<svg width="185.0901" height="13.3886" x="112.60930000000002" y="57.53429999999997" version="1.1" preserveAspectRatio="none" viewBox="4 -32.76 582.2800000000001 42.120000000000005">
  <g transform="matrix(1 0 0 1 0 0)" class="a6izo4zJpcolor"><path d="M22.76-2.96Q23.44-2.96 23.88-2.54Q24.32-2.12 24.32-1.48L24.32-1.48Q24.32-0.84 23.88-0.42Q23.44 0 22.76 0L22.76 0L5.56 0Q4.92 0 4.46-0.46Q4-0.92 4-1.56L4-1.56L4-29.68Q4-30.32 4.46-30.78Q4.92-31.24 5.56-31.24L5.56-31.24Q6.24-31.24 6.68-30.80Q7.12-30.36 7.12-29.68L7.12-29.68L7.12-2.96L22.76-2.96Z M42.24-22.08Q45.20-22.08 47.48-20.70Q49.76-19.32 51.02-16.88Q52.28-14.44 52.28-11.32L52.28-11.32Q52.28-10.68 51.88-10.30Q51.48-9.92 50.84-9.92L50.84-9.92L34.68-9.92Q35-6.64 37.24-4.60Q39.48-2.56 42.84-2.56L42.84-2.56Q44.28-2.56 45.74-3.06Q47.20-3.56 48.08-4.32L48.08-4.32Q48.60-4.72 49.16-4.72L49.16-4.72Q49.60-4.72 50.04-4.40L50.04-4.40Q50.56-3.92 50.56-3.32L50.56-3.32Q50.56-2.80 50.12-2.40L50.12-2.40Q48.80-1.28 46.76-0.54Q44.72 0.20 42.84 0.20L42.84 0.20Q39.64 0.20 37.12-1.22Q34.60-2.64 33.18-5.18Q31.76-7.72 31.76-10.92L31.76-10.92Q31.76-14.16 33.10-16.70Q34.44-19.24 36.82-20.66Q39.20-22.08 42.24-22.08L42.24-22.08ZM42.24-19.32Q39.20-19.32 37.20-17.44Q35.20-15.56 34.76-12.48L34.76-12.48L49.40-12.48Q49.08-15.56 47.16-17.44Q45.24-19.32 42.24-19.32L42.24-19.32Z M87.56-22.12Q90.40-22.12 92.66-20.92Q94.92-19.72 96.20-17.42Q97.48-15.12 97.48-11.92L97.48-11.92L97.48-1.52Q97.48-0.88 97.04-0.44Q96.60 0 95.96 0L95.96 0Q95.28 0 94.84-0.44Q94.40-0.88 94.40-1.52L94.40-1.52L94.40-11.92Q94.40-15.48 92.42-17.34Q90.44-19.20 87.24-19.20L87.24-19.20Q85.28-19.20 83.70-18.44Q82.12-17.68 81.20-16.34Q80.28-15 80.28-13.36L80.28-13.36L80.28-1.52Q80.28-0.84 79.86-0.42Q79.44 0 78.76 0L78.76 0Q78.08 0 77.64-0.42Q77.20-0.84 77.20-1.52L77.20-1.52L77.20-20.32Q77.20-21 77.64-21.44Q78.08-21.88 78.76-21.88L78.76-21.88Q79.44-21.88 79.86-21.44Q80.28-21 80.28-20.32L80.28-20.32L80.28-18.96Q81.60-20.44 83.48-21.28Q85.36-22.12 87.56-22.12L87.56-22.12Z M126.60-21.88Q127.28-21.88 127.72-21.46Q128.16-21.04 128.16-20.36L128.16-20.36L128.16-1.56Q128.16-0.88 127.72-0.44Q127.28 0 126.60 0L126.60 0Q125.92 0 125.50-0.44Q125.08-0.88 125.08-1.56L125.08-1.56L125.08-2.92Q123.76-1.44 121.88-0.60Q120 0.24 117.80 0.24L117.80 0.24Q114.96 0.24 112.70-0.96Q110.44-2.16 109.16-4.46Q107.88-6.76 107.88-9.96L107.88-9.96L107.88-20.36Q107.88-21 108.32-21.44Q108.76-21.88 109.40-21.88L109.40-21.88Q110.08-21.88 110.52-21.44Q110.96-21 110.96-20.36L110.96-20.36L110.96-9.96Q110.96-6.40 112.94-4.54Q114.92-2.68 118.12-2.68L118.12-2.68Q120.08-2.68 121.66-3.44Q123.24-4.20 124.16-5.54Q125.08-6.88 125.08-8.52L125.08-8.52L125.08-20.36Q125.08-21.04 125.50-21.46Q125.92-21.88 126.60-21.88L126.60-21.88Z M162.40-22.12Q164.76-22.12 166.58-21Q168.40-19.88 169.42-17.82Q170.44-15.76 170.44-13.04L170.44-13.04L170.44-1.52Q170.44-0.84 170.02-0.42Q169.60 0 168.92 0L168.92 0Q168.24 0 167.80-0.42Q167.36-0.84 167.36-1.52L167.36-1.52L167.36-13.04Q167.36-15.88 165.90-17.54Q164.44-19.20 162.08-19.20L162.08-19.20Q159.56-19.20 158.00-17.52Q156.44-15.84 156.48-13.12L156.48-13.12L156.48-13.04L156.48-1.52Q156.48-0.84 156.06-0.42Q155.64 0 154.96 0L154.96 0Q154.28 0 153.84-0.42Q153.40-0.84 153.40-1.52L153.40-1.52L153.40-13.04Q153.40-15.88 151.94-17.54Q150.48-19.20 148.12-19.20L148.12-19.20Q145.64-19.20 144.04-17.56Q142.44-15.92 142.44-13.36L142.44-13.36L142.44-1.52Q142.44-0.84 142.02-0.42Q141.60 0 140.92 0L140.92 0Q140.24 0 139.80-0.42Q139.36-0.84 139.36-1.52L139.36-1.52L139.36-20.32Q139.36-21 139.80-21.44Q140.24-21.88 140.92-21.88L140.92-21.88Q141.60-21.88 142.02-21.44Q142.44-21 142.44-20.32L142.44-20.32L142.44-19.44Q143.56-20.72 145.10-21.42Q146.64-22.12 148.44-22.12L148.44-22.12Q150.64-22.12 152.40-21.12Q154.16-20.12 155.20-18.32L155.20-18.32Q156.36-20.12 158.22-21.12Q160.08-22.12 162.40-22.12L162.40-22.12Z M190.56-22.08Q193.52-22.08 195.80-20.70Q198.08-19.32 199.34-16.88Q200.60-14.44 200.60-11.32L200.60-11.32Q200.60-10.68 200.20-10.30Q199.80-9.92 199.16-9.92L199.16-9.92L183.00-9.92Q183.32-6.64 185.56-4.60Q187.80-2.56 191.16-2.56L191.16-2.56Q192.60-2.56 194.06-3.06Q195.52-3.56 196.40-4.32L196.40-4.32Q196.92-4.72 197.48-4.72L197.48-4.72Q197.92-4.72 198.36-4.40L198.36-4.40Q198.88-3.92 198.88-3.32L198.88-3.32Q198.88-2.80 198.44-2.40L198.44-2.40Q197.12-1.28 195.08-0.54Q193.04 0.20 191.16 0.20L191.16 0.20Q187.96 0.20 185.44-1.22Q182.92-2.64 181.50-5.18Q180.08-7.72 180.08-10.92L180.08-10.92Q180.08-14.16 181.42-16.70Q182.76-19.24 185.14-20.66Q187.52-22.08 190.56-22.08L190.56-22.08ZM190.56-19.32Q187.52-19.32 185.52-17.44Q183.52-15.56 183.08-12.48L183.08-12.48L197.72-12.48Q197.40-15.56 195.48-17.44Q193.56-19.32 190.56-19.32L190.56-19.32ZM193.40-32.32Q193.84-32.76 194.48-32.76L194.48-32.76Q195.16-32.76 195.60-32.30Q196.04-31.84 196.04-31.16L196.04-31.16Q196.04-30.52 195.60-30.12L195.60-30.12L191.12-25.60Q190.72-25.20 190.08-25.20L190.08-25.20Q189.40-25.20 188.96-25.66Q188.52-26.12 188.52-26.76L188.52-26.76Q188.52-27.40 188.88-27.80L188.88-27.80L193.40-32.32Z M219.68-22.12Q221.36-22.12 222.34-21.68Q223.32-21.24 223.32-20.44L223.32-20.44Q223.32-20.20 223.28-20.08L223.28-20.08Q223.12-19.52 222.78-19.32Q222.44-19.12 221.84-19.12L221.84-19.12Q221.48-19.12 220.60-19.20L220.60-19.20Q220.28-19.24 219.64-19.24L219.64-19.24Q216.64-19.24 214.74-17.64Q212.84-16.04 212.84-13.48L212.84-13.48L212.84-1.52Q212.84-0.80 212.44-0.40Q212.04 0 211.32 0L211.32 0Q210.60 0 210.20-0.40Q209.80-0.80 209.80-1.52L209.80-1.52L209.80-20.36Q209.80-21.08 210.20-21.48Q210.60-21.88 211.32-21.88L211.32-21.88Q212.04-21.88 212.44-21.48Q212.84-21.08 212.84-20.36L212.84-20.36L212.84-18.60Q214.00-20.28 215.80-21.20Q217.60-22.12 219.68-22.12L219.68-22.12Z M232.76-20.32Q232.76-21 233.20-21.44Q233.64-21.88 234.32-21.88L234.32-21.88Q235-21.88 235.42-21.44Q235.84-21 235.84-20.32L235.84-20.32L235.84-1.56Q235.84-0.88 235.42-0.44Q235 0 234.32 0L234.32 0Q233.64 0 233.20-0.44Q232.76-0.88 232.76-1.56L232.76-1.56L232.76-20.32ZM234.32-30.40Q235.20-30.40 235.84-29.80Q236.48-29.20 236.48-28.24L236.48-28.24Q236.48-27.32 235.84-26.68Q235.20-26.04 234.28-26.04L234.28-26.04Q233.36-26.04 232.74-26.68Q232.12-27.32 232.12-28.24L232.12-28.24Q232.12-29.20 232.76-29.80Q233.40-30.40 234.32-30.40L234.32-30.40Z M268.76-10.92L268.76-1.52Q268.76-1.28 268.72-1.16L268.72-1.16L268.72 7.80Q268.72 8.48 268.30 8.92Q267.88 9.36 267.20 9.36L267.20 9.36Q266.52 9.36 266.08 8.92Q265.64 8.48 265.64 7.80L265.64 7.80L265.64-3.92Q264.24-2 262.08-0.90Q259.92 0.20 257.32 0.20L257.32 0.20Q254.28 0.20 251.82-1.26Q249.36-2.72 247.94-5.26Q246.52-7.80 246.52-10.92L246.52-10.92Q246.52-14.04 247.98-16.60Q249.44-19.16 251.98-20.62Q254.52-22.08 257.64-22.08L257.64-22.08Q260.76-22.08 263.30-20.62Q265.84-19.16 267.30-16.60Q268.76-14.04 268.76-10.92L268.76-10.92ZM257.64-2.60Q260.80-2.60 263.02-4.60Q265.24-6.60 265.64-9.72L265.64-9.72Q265.64-9.84 265.68-9.92L265.68-9.92Q265.72-10.24 265.72-10.92L265.72-10.92Q265.72-13.28 264.66-15.18Q263.60-17.08 261.76-18.18Q259.92-19.28 257.64-19.28L257.64-19.28Q255.36-19.28 253.50-18.18Q251.64-17.08 250.58-15.18Q249.52-13.28 249.52-10.92L249.52-10.92Q249.52-8.56 250.58-6.66Q251.64-4.76 253.50-3.68Q255.36-2.60 257.64-2.60L257.64-2.60Z M298.28-21.88Q298.96-21.88 299.40-21.46Q299.84-21.04 299.84-20.36L299.84-20.36L299.84-1.56Q299.84-0.88 299.40-0.44Q298.96 0 298.28 0L298.28 0Q297.60 0 297.18-0.44Q296.76-0.88 296.76-1.56L296.76-1.56L296.76-2.92Q295.44-1.44 293.56-0.60Q291.68 0.24 289.48 0.24L289.48 0.24Q286.64 0.24 284.38-0.96Q282.12-2.16 280.84-4.46Q279.56-6.76 279.56-9.96L279.56-9.96L279.56-20.36Q279.56-21 280-21.44Q280.44-21.88 281.08-21.88L281.08-21.88Q281.76-21.88 282.20-21.44Q282.64-21 282.64-20.36L282.64-20.36L282.64-9.96Q282.64-6.40 284.62-4.54Q286.60-2.68 289.80-2.68L289.80-2.68Q291.76-2.68 293.34-3.44Q294.92-4.20 295.84-5.54Q296.76-6.88 296.76-8.52L296.76-8.52L296.76-20.36Q296.76-21.04 297.18-21.46Q297.60-21.88 298.28-21.88L298.28-21.88Z M320.36-22.08Q323.32-22.08 325.60-20.70Q327.88-19.32 329.14-16.88Q330.40-14.44 330.40-11.32L330.40-11.32Q330.40-10.68 330-10.30Q329.60-9.92 328.96-9.92L328.96-9.92L312.80-9.92Q313.12-6.64 315.36-4.60Q317.60-2.56 320.96-2.56L320.96-2.56Q322.40-2.56 323.86-3.06Q325.32-3.56 326.20-4.32L326.20-4.32Q326.72-4.72 327.28-4.72L327.28-4.72Q327.72-4.72 328.16-4.40L328.16-4.40Q328.68-3.92 328.68-3.32L328.68-3.32Q328.68-2.80 328.24-2.40L328.24-2.40Q326.92-1.28 324.88-0.54Q322.84 0.20 320.96 0.20L320.96 0.20Q317.76 0.20 315.24-1.22Q312.72-2.64 311.30-5.18Q309.88-7.72 309.88-10.92L309.88-10.92Q309.88-14.16 311.22-16.70Q312.56-19.24 314.94-20.66Q317.32-22.08 320.36-22.08L320.36-22.08ZM320.36-19.32Q317.32-19.32 315.32-17.44Q313.32-15.56 312.88-12.48L312.88-12.48L327.52-12.48Q327.20-15.56 325.28-17.44Q323.36-19.32 320.36-19.32L320.36-19.32Z M366.44-22.08Q369.56-22.08 372.10-20.62Q374.64-19.16 376.10-16.60Q377.56-14.04 377.56-10.92L377.56-10.92Q377.56-7.80 376.14-5.26Q374.72-2.72 372.26-1.26Q369.80 0.20 366.76 0.20L366.76 0.20Q364.16 0.20 362-0.90Q359.84-2 358.44-3.92L358.44-3.92L358.44 7.80Q358.44 8.48 358 8.92Q357.56 9.36 356.88 9.36L356.88 9.36Q356.20 9.36 355.78 8.92Q355.36 8.48 355.36 7.80L355.36 7.80L355.36-1.16Q355.32-1.28 355.32-1.52L355.32-1.52L355.32-10.92Q355.32-14.04 356.78-16.60Q358.24-19.16 360.78-20.62Q363.32-22.08 366.44-22.08L366.44-22.08ZM366.44-2.60Q368.72-2.60 370.58-3.68Q372.44-4.76 373.50-6.66Q374.56-8.56 374.56-10.92L374.56-10.92Q374.56-13.28 373.50-15.18Q372.44-17.08 370.58-18.18Q368.72-19.28 366.44-19.28L366.44-19.28Q364.16-19.28 362.32-18.18Q360.48-17.08 359.42-15.18Q358.36-13.28 358.36-10.92L358.36-10.92Q358.36-10.24 358.40-9.92L358.40-9.92Q358.44-9.84 358.44-9.72L358.44-9.72Q358.84-6.60 361.06-4.60Q363.28-2.60 366.44-2.60L366.44-2.60Z M397.56-22.08Q400.72-22.08 403.24-20.64Q405.76-19.20 407.22-16.64Q408.68-14.08 408.68-10.92L408.68-10.92Q408.68-7.76 407.24-5.22Q405.80-2.68 403.26-1.24Q400.72 0.20 397.56 0.20L397.56 0.20Q394.40 0.20 391.86-1.24Q389.32-2.68 387.88-5.22Q386.44-7.76 386.44-10.92L386.44-10.92Q386.44-14.08 387.88-16.64Q389.32-19.20 391.86-20.64Q394.40-22.08 397.56-22.08L397.56-22.08ZM397.56-19.28Q395.28-19.28 393.42-18.20Q391.56-17.12 390.50-15.22Q389.44-13.32 389.44-10.92L389.44-10.92Q389.44-8.56 390.50-6.66Q391.56-4.76 393.42-3.68Q395.28-2.60 397.56-2.60L397.56-2.60Q399.88-2.60 401.72-3.68Q403.56-4.76 404.60-6.66Q405.64-8.56 405.64-10.92L405.64-10.92Q405.64-13.32 404.60-15.22Q403.56-17.12 401.72-18.20Q399.88-19.28 397.56-19.28L397.56-19.28Z M437-21.88Q437.68-21.88 438.12-21.46Q438.56-21.04 438.56-20.36L438.56-20.36L438.56-1.56Q438.56-0.88 438.12-0.44Q437.68 0 437 0L437 0Q436.32 0 435.90-0.44Q435.48-0.88 435.48-1.56L435.48-1.56L435.48-2.92Q434.16-1.44 432.28-0.60Q430.40 0.24 428.20 0.24L428.20 0.24Q425.36 0.24 423.10-0.96Q420.84-2.16 419.56-4.46Q418.28-6.76 418.28-9.96L418.28-9.96L418.28-20.36Q418.28-21 418.72-21.44Q419.16-21.88 419.80-21.88L419.80-21.88Q420.48-21.88 420.92-21.44Q421.36-21 421.36-20.36L421.36-20.36L421.36-9.96Q421.36-6.40 423.34-4.54Q425.32-2.68 428.52-2.68L428.52-2.68Q430.48-2.68 432.06-3.44Q433.64-4.20 434.56-5.54Q435.48-6.88 435.48-8.52L435.48-8.52L435.48-20.36Q435.48-21.04 435.90-21.46Q436.32-21.88 437-21.88L437-21.88Z M459.64-22.12Q461.32-22.12 462.30-21.68Q463.28-21.24 463.28-20.44L463.28-20.44Q463.28-20.20 463.24-20.08L463.24-20.08Q463.08-19.52 462.74-19.32Q462.40-19.12 461.80-19.12L461.80-19.12Q461.44-19.12 460.56-19.20L460.56-19.20Q460.24-19.24 459.60-19.24L459.60-19.24Q456.60-19.24 454.70-17.64Q452.80-16.04 452.80-13.48L452.80-13.48L452.80-1.52Q452.80-0.80 452.40-0.40Q452.00 0 451.28 0L451.28 0Q450.56 0 450.16-0.40Q449.76-0.80 449.76-1.52L449.76-1.52L449.76-20.36Q449.76-21.08 450.16-21.48Q450.56-21.88 451.28-21.88L451.28-21.88Q452.00-21.88 452.40-21.48Q452.80-21.08 452.80-20.36L452.80-20.36L452.80-18.60Q453.96-20.28 455.76-21.20Q457.56-22.12 459.64-22.12L459.64-22.12Z M497.44-3.08Q498.08-3.08 498.48-2.64Q498.88-2.20 498.88-1.52L498.88-1.52Q498.88-0.88 498.40-0.44Q497.92 0 497.20 0L497.20 0L496.36 0Q494.24 0 492.56-1.02Q490.88-2.04 489.94-3.78Q489-5.52 489-7.72L489-7.72L489-18.40L486.40-18.40Q485.76-18.40 485.38-18.78Q485-19.16 485-19.72L485-19.72Q485-20.32 485.38-20.70Q485.76-21.08 486.40-21.08L486.40-21.08L489-21.08L489-27.28Q489-27.96 489.42-28.40Q489.84-28.84 490.52-28.84L490.52-28.84Q491.20-28.84 491.64-28.40Q492.08-27.96 492.08-27.28L492.08-27.28L492.08-21.08L496.60-21.08Q497.24-21.08 497.62-20.70Q498-20.32 498-19.72L498-19.72Q498-19.16 497.62-18.78Q497.24-18.40 496.60-18.40L496.60-18.40L492.08-18.40L492.08-7.72Q492.08-5.68 493.28-4.38Q494.48-3.08 496.36-3.08L496.36-3.08L497.44-3.08Z M517.84-22.08Q521-22.08 523.52-20.64Q526.04-19.20 527.50-16.64Q528.96-14.08 528.96-10.92L528.96-10.92Q528.96-7.76 527.52-5.22Q526.08-2.68 523.54-1.24Q521 0.20 517.84 0.20L517.84 0.20Q514.68 0.20 512.14-1.24Q509.60-2.68 508.16-5.22Q506.72-7.76 506.72-10.92L506.72-10.92Q506.72-14.08 508.16-16.64Q509.60-19.20 512.14-20.64Q514.68-22.08 517.84-22.08L517.84-22.08ZM517.84-19.28Q515.56-19.28 513.70-18.20Q511.84-17.12 510.78-15.22Q509.72-13.32 509.72-10.92L509.72-10.92Q509.72-8.56 510.78-6.66Q511.84-4.76 513.70-3.68Q515.56-2.60 517.84-2.60L517.84-2.60Q520.16-2.60 522-3.68Q523.84-4.76 524.88-6.66Q525.92-8.56 525.92-10.92L525.92-10.92Q525.92-13.32 524.88-15.22Q523.84-17.12 522-18.20Q520.16-19.28 517.84-19.28L517.84-19.28Z M557.28-21.88Q557.96-21.88 558.40-21.46Q558.84-21.04 558.84-20.36L558.84-20.36L558.84-1.56Q558.84-0.88 558.40-0.44Q557.96 0 557.28 0L557.28 0Q556.60 0 556.18-0.44Q555.76-0.88 555.76-1.56L555.76-1.56L555.76-2.92Q554.44-1.44 552.56-0.60Q550.68 0.24 548.48 0.24L548.48 0.24Q545.64 0.24 543.38-0.96Q541.12-2.16 539.84-4.46Q538.56-6.76 538.56-9.96L538.56-9.96L538.56-20.36Q538.56-21 539-21.44Q539.44-21.88 540.08-21.88L540.08-21.88Q540.76-21.88 541.20-21.44Q541.64-21 541.64-20.36L541.64-20.36L541.64-9.96Q541.64-6.40 543.62-4.54Q545.60-2.68 548.80-2.68L548.80-2.68Q550.76-2.68 552.34-3.44Q553.92-4.20 554.84-5.54Q555.76-6.88 555.76-8.52L555.76-8.52L555.76-20.36Q555.76-21.04 556.18-21.46Q556.60-21.88 557.28-21.88L557.28-21.88Z M577.60-22.08Q580.24-22.08 582.20-21.18Q584.16-20.28 585.36-18.68L585.36-18.68Q585.68-18.16 585.68-17.76L585.68-17.76Q585.68-17.08 585.04-16.68L585.04-16.68Q584.76-16.48 584.28-16.48L584.28-16.48Q583.44-16.48 582.88-17.08L582.88-17.08Q580.92-19.32 577.52-19.32L577.52-19.32Q575.32-19.32 574-18.42Q572.68-17.52 572.68-16.16L572.68-16.16Q572.68-14.72 573.92-13.86Q575.16-13 578.32-12.48L578.32-12.48Q582.60-11.76 584.44-10.14Q586.28-8.52 586.28-6.12L586.28-6.12Q586.28-4.28 585.18-2.84Q584.08-1.40 582.12-0.60Q580.16 0.20 577.68 0.20L577.68 0.20Q575.20 0.20 572.92-0.64Q570.64-1.48 569.24-3L569.24-3Q568.84-3.48 568.84-3.92L568.84-3.92Q568.84-4.60 569.48-5.12L569.48-5.12Q569.96-5.48 570.48-5.48L570.48-5.48Q571.16-5.48 571.64-4.92L571.64-4.92Q572.60-3.80 574.18-3.20Q575.76-2.60 577.68-2.60L577.68-2.60Q580.48-2.60 581.88-3.56Q583.28-4.52 583.32-6.08L583.32-6.08Q583.32-7.52 581.92-8.48Q580.52-9.44 577.48-9.92L577.48-9.92Q573.56-10.56 571.62-12.14Q569.68-13.72 569.68-15.96L569.68-15.96Q569.68-18.88 571.94-20.48Q574.20-22.08 577.60-22.08L577.60-22.08Z"></path></g>
</svg>
</g><g opacity="1" transform="rotate(0 112.60930000000002 0)">
<svg width="185.0901" height="51.6974" x="112.60930000000002" y="0" version="1.1" preserveAspectRatio="none" viewBox="2.44 -31.24 142.8 39.879999999999995">
  <g transform="matrix(1 0 0 1 0 0)" class="companyName"><path d="M24.64-20.72Q24.68-20.60 24.68-20.36L24.68-20.36L24.68-10.96Q24.68-7.84 23.22-5.28Q21.76-2.72 19.22-1.26Q16.68 0.20 13.56 0.20L13.56 0.20Q10.44 0.20 7.90-1.26Q5.36-2.72 3.90-5.28Q2.44-7.84 2.44-10.96L2.44-10.96Q2.44-14.08 3.86-16.62Q5.28-19.16 7.74-20.62Q10.20-22.08 13.24-22.08L13.24-22.08Q15.84-22.08 18-20.98Q20.16-19.88 21.56-17.96L21.56-17.96L21.56-29.68Q21.56-30.36 22-30.80Q22.44-31.24 23.12-31.24L23.12-31.24Q23.80-31.24 24.22-30.80Q24.64-30.36 24.64-29.68L24.64-29.68L24.64-20.72ZM13.56-2.60Q15.84-2.60 17.68-3.70Q19.52-4.80 20.58-6.70Q21.64-8.60 21.64-10.96L21.64-10.96Q21.64-11.64 21.60-11.96L21.60-11.96Q21.56-12.04 21.56-12.16L21.56-12.16Q21.16-15.28 18.94-17.28Q16.72-19.28 13.56-19.28L13.56-19.28Q11.28-19.28 9.42-18.20Q7.56-17.12 6.50-15.22Q5.44-13.32 5.44-10.96L5.44-10.96Q5.44-8.60 6.50-6.70Q7.56-4.80 9.42-3.70Q11.28-2.60 13.56-2.60L13.56-2.60Z M32.52-20.32Q32.52-21 32.96-21.44Q33.40-21.88 34.08-21.88L34.08-21.88Q34.76-21.88 35.18-21.44Q35.60-21 35.60-20.32L35.60-20.32L35.60-1.56Q35.60-0.88 35.18-0.44Q34.76 0 34.08 0L34.08 0Q33.40 0 32.96-0.44Q32.52-0.88 32.52-1.56L32.52-1.56L32.52-20.32ZM34.08-30.40Q34.96-30.40 35.60-29.80Q36.24-29.20 36.24-28.24L36.24-28.24Q36.24-27.32 35.60-26.68Q34.96-26.04 34.04-26.04L34.04-26.04Q33.12-26.04 32.50-26.68Q31.88-27.32 31.88-28.24L31.88-28.24Q31.88-29.20 32.52-29.80Q33.16-30.40 34.08-30.40L34.08-30.40Z M53.40-22.08Q56.60-22.08 59.12-20.66Q61.64-19.24 63.08-16.70Q64.52-14.16 64.52-10.92L64.52-10.92L64.52-2.76Q64.52 0.44 63.10 3.04Q61.68 5.64 59.16 7.14Q56.64 8.64 53.48 8.64L53.48 8.64Q50.40 8.64 48 7.48Q45.60 6.32 43.96 4.24L43.96 4.24Q43.60 3.84 43.60 3.32L43.60 3.32Q43.60 2.72 44.16 2.28L44.16 2.28Q44.56 2 45.04 2L45.04 2Q45.40 2 45.76 2.18Q46.12 2.36 46.32 2.64L46.32 2.64Q47.52 4.16 49.36 5Q51.20 5.84 53.52 5.84L53.52 5.84Q55.76 5.84 57.58 4.74Q59.40 3.64 60.44 1.66Q61.48-0.32 61.48-2.88L61.48-2.88L61.48-4.68Q60.28-2.40 58.08-1.10Q55.88 0.20 53.08 0.20L53.08 0.20Q49.96 0.20 47.50-1.22Q45.04-2.64 43.66-5.18Q42.28-7.72 42.28-10.92L42.28-10.92Q42.28-14.16 43.72-16.70Q45.16-19.24 47.70-20.66Q50.24-22.08 53.40-22.08L53.40-22.08ZM53.40-2.60Q55.72-2.60 57.56-3.66Q59.40-4.72 60.44-6.62Q61.48-8.52 61.48-10.92L61.48-10.92Q61.48-13.32 60.44-15.22Q59.40-17.12 57.56-18.20Q55.72-19.28 53.40-19.28L53.40-19.28Q51.04-19.28 49.20-18.20Q47.36-17.12 46.32-15.22Q45.28-13.32 45.28-10.92L45.28-10.92Q45.28-8.52 46.32-6.62Q47.36-4.72 49.20-3.66Q51.04-2.60 53.40-2.60L53.40-2.60Z M71.16-20.32Q71.16-21 71.60-21.44Q72.04-21.88 72.72-21.88L72.72-21.88Q73.40-21.88 73.82-21.44Q74.24-21 74.24-20.32L74.24-20.32L74.24-1.56Q74.24-0.88 73.82-0.44Q73.40 0 72.72 0L72.72 0Q72.04 0 71.60-0.44Q71.16-0.88 71.16-1.56L71.16-1.56L71.16-20.32ZM72.72-30.40Q73.60-30.40 74.24-29.80Q74.88-29.20 74.88-28.24L74.88-28.24Q74.88-27.32 74.24-26.68Q73.60-26.04 72.68-26.04L72.68-26.04Q71.76-26.04 71.14-26.68Q70.52-27.32 70.52-28.24L70.52-28.24Q70.52-29.20 71.16-29.80Q71.80-30.40 72.72-30.40L72.72-30.40Z M91.72-28.44Q89.08-28.44 87.74-26.68Q86.40-24.92 86.40-22L86.40-22L86.40-21.08L91.20-21.08Q91.84-21.08 92.22-20.70Q92.60-20.32 92.60-19.72L92.60-19.72Q92.60-19.16 92.22-18.78Q91.84-18.40 91.20-18.40L91.20-18.40L86.40-18.40L86.40-1.56Q86.40-0.84 85.98-0.42Q85.56 0 84.80 0L84.80 0Q84.16 0 83.74-0.42Q83.32-0.84 83.32-1.56L83.32-1.56L83.32-18.40L80.76-18.40Q80.12-18.40 79.74-18.78Q79.36-19.16 79.36-19.72L79.36-19.72Q79.36-20.32 79.74-20.70Q80.12-21.08 80.76-21.08L80.76-21.08L83.32-21.08L83.32-21.84Q83.32-26.12 85.52-28.68Q87.72-31.24 91.72-31.24L91.72-31.24Q92.40-31.24 92.84-30.84Q93.28-30.44 93.28-29.84L93.28-29.84Q93.28-29.24 92.84-28.84Q92.40-28.44 91.72-28.44L91.72-28.44Z M105.88-22.08Q109-22.08 111.54-20.62Q114.08-19.16 115.54-16.60Q117-14.04 117-10.92L117-10.92L117-1.52Q117-0.88 116.56-0.44Q116.12 0 115.44 0L115.44 0Q114.76 0 114.32-0.42Q113.88-0.84 113.88-1.52L113.88-1.52L113.88-3.92Q112.48-2 110.32-0.90Q108.16 0.20 105.56 0.20L105.56 0.20Q102.52 0.20 100.06-1.26Q97.60-2.72 96.18-5.26Q94.76-7.80 94.76-10.92L94.76-10.92Q94.76-14.04 96.22-16.60Q97.68-19.16 100.22-20.62Q102.76-22.08 105.88-22.08L105.88-22.08ZM105.88-2.60Q108.16-2.60 110-3.68Q111.84-4.76 112.90-6.66Q113.96-8.56 113.96-10.92L113.96-10.92Q113.96-13.28 112.90-15.18Q111.84-17.08 110-18.18Q108.16-19.28 105.88-19.28L105.88-19.28Q103.60-19.28 101.74-18.18Q99.88-17.08 98.82-15.18Q97.76-13.28 97.76-10.92L97.76-10.92Q97.76-8.56 98.82-6.66Q99.88-4.76 101.74-3.68Q103.60-2.60 105.88-2.60L105.88-2.60Z M123.04-20.72Q123-20.60 123-20.36L123-20.36L123-10.96Q123-7.84 124.46-5.28Q125.92-2.72 128.46-1.26Q131 0.20 134.12 0.20L134.12 0.20Q137.24 0.20 139.78-1.26Q142.32-2.72 143.78-5.28Q145.24-7.84 145.24-10.96L145.24-10.96Q145.24-14.08 143.82-16.62Q142.40-19.16 139.94-20.62Q137.48-22.08 134.44-22.08L134.44-22.08Q131.84-22.08 129.68-20.98Q127.52-19.88 126.12-17.96L126.12-17.96L126.12-29.68Q126.12-30.36 125.68-30.80Q125.24-31.24 124.56-31.24L124.56-31.24Q123.88-31.24 123.46-30.80Q123.04-30.36 123.04-29.68L123.04-29.68L123.04-20.72ZM134.12-2.60Q131.84-2.60 130-3.70Q128.16-4.80 127.10-6.70Q126.04-8.60 126.04-10.96L126.04-10.96Q126.04-11.64 126.08-11.96L126.08-11.96Q126.12-12.04 126.12-12.16L126.12-12.16Q126.52-15.28 128.74-17.28Q130.96-19.28 134.12-19.28L134.12-19.28Q136.40-19.28 138.26-18.20Q140.12-17.12 141.18-15.22Q142.24-13.32 142.24-10.96L142.24-10.96Q142.24-8.60 141.18-6.70Q140.12-4.80 138.26-3.70Q136.40-2.60 134.12-2.60L134.12-2.60Z"></path></g>
</svg>
</g><g opacity="1" transform="rotate(0 93.53659999999999 0)">
<svg width="1.9399" height="65.3086" x="93.53659999999999" y="0" version="1.1" preserveAspectRatio="none" viewBox="0 0 1.9399 65.3086">
  <rect x="0" y="0" width="1.9399" height="65.3086" class="companyName shapeStroke-str" style="stroke-width:0;" rx="0px" ry="0px"></rect>
</svg>
</g></svg>